<?xml version="1.0"?>
<svg xmlns="http://www.w3.org/2000/svg" xmlns:xlink="http://www.w3.org/1999/xlink" xmlns:svgjs="http://svgjs.com/svgjs" version="1.1" width="512" height="512" x="0" y="0" viewBox="0 0 490.919 490.919" style="enable-background:new 0 0 512 512" xml:space="preserve" class=""><g><g xmlns="http://www.w3.org/2000/svg"><path d="m291.994 72.149c18.223 46.421 94.838 37.12 95.505-15.108 1.745-18.674-5.851-38.721-22.325-48.913-30.875-21.286-79.946 1.656-77.392 40.761.324 7.842 1.256 15.907 4.212 23.26zm61.909-39.782c10.57 3.404 17.205 13.014 16.679 24.375 1.463 34.648-51.602 36.57-57.96 5.879-4.206-27.387 17.433-37.723 41.281-30.254z" fill="#1d3557" data-original="#000000" style="" class=""/><path d="m56.233 313.824c-63.859 18.006-65.507 113.3-19.126 150.911 63.013 49.419 138.167 6.958 142.543-69.973-2.433-58.058-69.835-97.46-123.417-80.938zm-18.704 50.374c25.284-46.753 121.527-20.879 125.202 30.406-8.641 119.838-168.368 77.791-125.202-30.406z" fill="#1d3557" data-original="#000000" style="" class=""/><path d="m485.813 392.71c-1.668-29.155-17.486-57.061-41.838-73.444-43.378-29.707-104.976-3.237-129.998 39.274-40.702 71.682 20.261 150.676 100.124 128.611 9.156-2.01 7.883-16.555-1.664-16.743-8.347-.439-16.512-1.007-24.203-2.553-56.456-8.032-75.607-74.066-38.568-115.119 34.514-36.025 84.928-35.629 110.007 10.608 8.757 15.964 12.164 36.073 6.083 53.421-3.585 10.378 12.713 15.768 16.05 5.327 3.205-9.424 4.634-19.508 4.007-29.382z" fill="#1d3557" data-original="#000000" style="" class=""/><path d="m215.404 227.566c-11.736 15.83 12.266 33.726 24.105 18.033 17.303-23.093 39.832-42.267 57.711-65.143 30.339 39.232 57.416 79.437 118.355 74.295 8.691-.785 17.101-2.46 25.259-4.734 18.771-5.976 9.6-34.465-9.018-28.622-12.73 4.029-25.724 6.185-38.026 4.582-26.662-3.199-46.772-22.94-63.622-43.741-23.938-28.845-50.357-75.774-94.819-64.45-25.173 6.976-44.253 26.303-60.993 44.267-24.696 26.605-49.815 58.472-35.854 96.836 31.829 66.926 146.713 54.232 88.048 176.348-6.532 13.353 14.1 22.658 19.859 9.053 4.709-11.467 8.862-23.297 11.787-35.668 8.66-31.923 1.702-68.706-24.042-90.955-33.787-33.227-103.437-48.628-72.115-108.385 22.109-26.362 70.728-94.124 107.538-61.109 6.411 6.353 12.363 13.176 18.08 20.189-10.276 8.858-20.961 17.105-31.902 25.351-13.806 10.607-28.173 20.957-40.351 33.853z" fill="#1d3557" data-original="#000000" style="" class=""/></g></g></svg>
